<svg height="512" viewBox="0 0 47.99998 48" width="512" xmlns="http://www.w3.org/2000/svg"><g id="eror"><path d="m41 4.5h-34a3.99891 3.99891 0 0 0 -4 4v31a3.999 3.999 0 0 0 4 4h34a3.99891 3.99891 0 0 0 4-4v-31a3.99887 3.99887 0 0 0 -4-4zm-23 30.96a1.0002 1.0002 0 0 1 -2-.00006v-4.99994h-5a1.00291 1.00291 0 0 1 -1-1v-7.02a1.00011 1.00011 0 0 1 2 0v6.02h4v-6.02a1 1 0 0 1 2 0zm9.98-2.93a3.94008 3.94008 0 0 1 -7.88-.00009v-8.05991a3.94 3.94 0 1 1 7.88 0zm10.02 2.93a1.0002 1.0002 0 0 1 -2-.00006v-4.99994h-5a1.00291 1.00291 0 0 1 -1-1v-7.02a1.00011 1.00011 0 0 1 2 0v6.02h4v-6.02a1 1 0 1 1 2 0zm5-21.96h-38v-5a2.00587 2.00587 0 0 1 2-2h34a2.00583 2.00583 0 0 1 2 2zm-16.88 10.97v8.05991a2.0802 2.0802 0 0 1 -4.16.00009v-8.06a2.0802 2.0802 0 0 1 4.16 0zm7.38005-12.97a1.50015 1.50015 0 0 1 -.00005-3 1.50015 1.50015 0 0 1 .00005 3zm5 0a1.50015 1.50015 0 0 1 -.00005-3 1.50015 1.50015 0 0 1 .00005 3zm-10 0a1.50015 1.50015 0 0 1 -.00005-3 1.50015 1.50015 0 0 1 .00005 3z"/></g></svg>