<?xml version="1.0" encoding="utf-8"?>
<!-- Generator: Adobe Illustrator 26.0.3, SVG Export Plug-In . SVG Version: 6.00 Build 0)  -->
<svg version="1.1" id="Layer_1" xmlns="http://www.w3.org/2000/svg" xmlns:xlink="http://www.w3.org/1999/xlink" x="0px" y="0px"
	 width="500px" height="500px" viewBox="0 0 500 500" style="enable-background:new 0 0 500 500;" xml:space="preserve">
<style type="text/css">
	.st0{fill:#FFFFFF;}
</style>
<path class="st0" d="M249.984,95.182c-85.321,0.002-154.711,69.371-154.785,154.737c-0.075,85.488,69.326,154.887,154.901,154.899
	c85.43,0.012,154.566-69.118,154.7-154.688C404.935,164.609,335.565,95.18,249.984,95.182z M346.989,263.166
	c-19.682,8.085-40.396,11.843-61.315,14.727c-15.503,2.137-31.028,4.12-46.538,6.209c-1.247,0.168-2.749,0.288-3.617,1.032
	c-1.631,1.397-2.885,3.235-4.296,4.889c1.567,0.953,3.024,2.229,4.719,2.812c29.915,10.292,59.379,21.715,88.184,34.816
	c6.213,2.825,11.513,6.819,16.006,11.936c1.819,2.071,2.654,4.318,1.754,7.051c-1.511,4.593-6.87,6.526-9.813,2.83
	c-7.165-8.999-17.567-12.255-27.405-16.233c-24.569-9.932-49.311-19.454-74.146-28.704c-9.984-3.719-7.799-3.209-13.015,4.145
	c-4.302,6.066-8.142,12.467-11.985,18.841c-0.624,1.035-0.772,3.092-0.152,4.01c2.068,3.063,1.727,5.819-0.26,8.569
	c-1.769,2.448-5.895,3.689-8.978,2.661c-3.362-1.122-6.03-3.358-6.141-6.997c-0.098-3.198,0.034-6.886,1.509-9.561
	c4.874-8.843,10.346-17.36,15.71-25.927c1.794-2.866,1.793-3.018-1.393-4.542c-2.547-1.218-5.189-2.451-7.344-4.219
	c-2.799-2.298-4.064-5.47-2.704-9.167c1.399-3.802,4.762-5.018,8.236-5.748c6.543-1.377,13.252-2.107,19.656-3.935
	c2.778-0.793,5.482-3.235,7.349-5.612c14.929-19.008,29.503-38.297,44.513-57.239c5.342-6.741,11.557-12.796,17.448-19.093
	c1.373-1.467,2.999-2.718,4.604-3.943c3.614-2.756,6.982-2.707,9.41,0.034c2.488,2.809,2.473,8.059-0.647,10.431
	c-19.871,15.113-32.282,36.636-47.885,55.409c-3.605,4.337-6.97,8.875-10.407,13.35c-0.688,0.896-1.207,1.922-1.804,2.889
	c0.144,0.307,0.287,0.614,0.431,0.922c2.931-0.289,5.888-0.417,8.788-0.893c21.63-3.557,43.344-6.705,64.839-10.954
	c14.659-2.898,28.664-8.228,41.044-16.984c2.761-1.953,5.419-4.173,7.707-6.655c9.435-10.231,9.485-21.526,0.228-32.022
	c-6.133-6.954-13.645-12.123-21.72-16.593c-19.861-10.996-41.422-16.524-63.613-20.136c-34.479-5.612-68.756-4.406-102.828,3.075
	c-13.72,3.012-26.755,7.94-38.645,15.49c-3.92,2.489-7.649,5.485-10.875,8.82c-9.284,9.597-10.653,21.636-3.82,33.111
	c6.729,11.3,16.271,19.84,27.315,26.829c8.001,5.063,15.934,10.233,23.82,15.473c1.658,1.102,3.173,2.56,4.413,4.124
	c3.202,4.036,2.125,9.453-2.169,11.792c-3.348,1.823-6.396,0.731-8.444-2.432c-1.452-2.243-3.224-4.553-5.406-6.001
	c-8.598-5.709-17.594-10.828-26.102-16.662c-9.381-6.432-17.361-14.414-23.484-24.098c-11.485-18.163-9.29-37.952,6.164-52.905
	c3.87-3.744,8.286-7.056,12.856-9.924c17.357-10.894,36.744-16.096,56.71-19.468c41.053-6.931,81.71-5.117,121.814,6.152
	c17.468,4.908,34.476,11.14,49.401,21.865c6.85,4.923,13.278,10.373,18.004,17.497c10.399,15.677,8.912,31.771-4.115,45.409
	C369.731,252.959,358.583,258.403,346.989,263.166z"/>
<g>
	<path class="st0" d="M10.798,254.226c3.485-0.122,6.022-2.862,5.985-6.464c-0.036-3.579-2.659-6.255-6.165-6.288
		c-3.661-0.034-6.355,2.727-6.306,6.466C4.361,251.672,7.128,254.354,10.798,254.226z"/>
	<path class="st0" d="M25.094,181.048c1.641,0.411,2.858,0.552,3.306,0.501l1.532-6.124l-0.563-0.141
		c-0.179,0.717-0.98,0.435-3.389-0.168c-3.715-0.929-4.471,0.134-5.676,1.902c-0.051-2.3-1.608-3.697-3.735-4.229
		c-3.587-0.897-5.759,0.711-7.297,6.861l-2.18,8.712l18.45,4.615l1.513-6.047l-6.432-1.609l0.462-1.845
		C21.788,180.658,22.686,180.447,25.094,181.048z M17.169,181.925l-0.595,2.383l-3.665-0.917l0.706-2.819
		c0.352-1.41,1.224-2.28,2.53-1.954C17.426,178.94,17.638,180.055,17.169,181.925z"/>
	<polygon class="st0" points="44.085,129.467 39.824,138.115 37.146,136.795 40.614,129.759 36.633,127.797 33.167,134.833 
		30.726,133.631 34.824,125.315 30.844,123.353 23.99,137.26 41.049,145.667 48.066,131.429 	"/>
	<polygon class="st0" points="49.46,93.593 68.397,100.335 72.291,95.432 61.505,78.43 57.594,83.353 65.351,93.934 53.371,88.67 	
		"/>
	
		<rect x="91.947" y="49.255" transform="matrix(0.763 -0.6465 0.6465 0.763 -15.4525 75.3831)" class="st0" width="6.232" height="19.013"/>
	<polygon class="st0" points="119.966,28.886 134.878,42.356 140.351,39.317 136.89,19.487 131.395,22.538 134.513,35.279 
		125.461,25.834 	"/>
	<polygon class="st0" points="184.527,1.29 169.694,5.803 175.229,23.998 190.416,19.376 189.125,15.132 179.901,17.938 
		179.032,15.082 186.538,12.799 185.246,8.553 177.74,10.836 176.949,8.234 185.819,5.536 	"/>
	<path class="st0" d="M15.692,312.354c6.75-1.526,2.613-11.802,5.395-12.431c0.67-0.151,1.19,0.353,1.493,1.693
		c0.135,0.594,0.154,1.158,0.022,1.648c-0.133,0.49-0.445,0.913-1.065,1.161l1.305,5.772c3.147-1.172,5.244-4.111,4.08-9.263
		c-1.048-4.637-3.801-7.591-7.743-6.699c-7.085,1.601-2.741,11.831-5.55,12.465c-0.875,0.198-1.592-0.696-1.935-2.215
		c-0.134-0.592-0.125-1.272,0.073-1.831c0.193-0.585,0.601-1.056,1.242-1.337l-1.317-5.822c-3.319,0.886-5.456,4.727-4.349,9.623
		C8.493,310.218,11.39,313.327,15.692,312.354z"/>
	<path class="st0" d="M27.816,361.758l14.55-14.013l-2.6-5.782l-20.139,1.584l2.503,5.564l2.581-0.378l2.545,5.66l-1.985,1.703
		L27.816,361.758z M35.817,347.156l-5.392,4.626l-1.613-3.589L35.817,347.156z"/>
	<polygon class="st0" points="55.021,404.655 70.388,393.448 66.87,388.624 61.982,392.189 58.622,394.934 63.009,383.331 
		59.57,378.613 44.202,389.82 47.72,394.645 52.587,391.095 55.947,388.351 51.58,399.938 	"/>
	<path class="st0" d="M122.718,464.298l4.825-19.615l-5.284-3.501l-16.184,12.087l5.085,3.37l1.981-1.698l5.173,3.428l-0.77,2.5
		L122.718,464.298z M116.32,452.296l5.371-4.615l-2.092,6.788L116.32,452.296z"/>
	<polygon class="st0" points="166.617,475.729 164.088,463.586 158.654,461.454 151.71,479.16 157.267,481.339 159.466,475.733 
		160.827,471.612 163.366,483.73 168.799,485.862 175.744,468.157 170.187,465.977 167.979,471.609 	"/>
	<polygon class="st0" points="212.266,496.647 214.618,482.819 220.139,483.76 220.976,478.837 203.789,475.913 202.952,480.834 
		208.473,481.774 206.12,495.602 	"/>
	<path class="st0" d="M249.552,490.187c0.232,6.466,4.35,10.019,10.315,9.804c5.623-0.201,9.846-3.999,9.615-10.466
		c-0.18-5.014-3.548-9.782-10.332-9.539C253.237,480.196,249.339,484.222,249.552,490.187z M263.253,489.748
		c0.113,3.141-0.86,5.501-3.552,5.598c-2.982,0.107-3.83-2.902-3.918-5.33c-0.086-2.402,0.656-5.283,3.481-5.384
		C262.005,484.455,263.16,487.162,263.253,489.748z"/>
	<polygon class="st0" points="320.571,489.946 315.958,471.495 310.166,472.942 311.633,478.811 312.914,482.956 303.811,474.531 
		298.148,475.948 302.76,494.399 308.552,492.951 307.09,487.108 305.809,482.962 314.907,491.362 	"/>
	<g>
		<g>
			<path class="st0" d="M317.366,10.255c0.742-4.855-1.679-8.458-7.304-9.918c-5.138-1.333-10.14,1.326-11.686,7.282
				c-1.552,5.983,1.161,10.671,7.245,12.25c4.858,1.26,9.001-0.721,10.772-5.336l-5.803-1.506c-0.688,1.704-1.96,2.82-3.903,2.317
				c-3.068-0.797-3.001-3.372-2.331-5.953c0.922-3.554,2.672-5.038,4.794-4.487c1.892,0.491,2.808,1.901,2.489,3.866L317.366,10.255
				z"/>
			<polygon class="st0" points="360.323,41.249 368.988,24.314 363.437,21.474 360.512,27.19 355.267,24.506 358.191,18.79 
				352.64,15.949 343.976,32.886 349.527,35.725 352.884,29.163 358.13,31.847 354.772,38.409 			"/>
			<path class="st0" d="M406.801,64.585l6.895-8.249l-4.783-3.998l-7.302,8.736c-1.321,1.581-2.742,2.252-4.465,0.812
				c-1.966-1.643-1.217-3.117-0.013-4.556l7.3-8.736l-4.784-3.998l-6.877,8.23c-4.201,5.027-3.128,8.85,1.393,12.627
				C399.009,69.502,402.888,69.268,406.801,64.585z"/>
		</g>
		<g>
			<path class="st0" d="M486.91,241.474c-3.661-0.034-6.355,2.727-6.306,6.466c0.048,3.733,2.815,6.415,6.486,6.287
				c3.485-0.122,6.022-2.862,5.985-6.464C493.039,244.182,490.416,241.506,486.91,241.474z"/>
			<path class="st0" d="M445.211,99.892c2.937-2.246,3.033-4.946-0.817-9.981l-5.455-7.132l-15.105,11.552l3.786,4.95l5.266-4.027
				l1.156,1.511c1.764,2.307,1.37,3.14-0.602,4.648c-1.342,1.027-2.211,1.891-2.451,2.273l3.834,5.014l0.462-0.353
				c-0.449-0.588,0.27-1.039,2.243-2.546c3.041-2.327,2.681-3.581,2.049-5.624C441.408,101.57,443.47,101.224,445.211,99.892z
				 M440.916,95.929c-1.048,0.803-2.052,0.273-3.223-1.258l-1.493-1.951l3.001-2.294l1.764,2.307
				C441.848,93.887,441.986,95.111,440.916,95.929z"/>
			<path class="st0" d="M459.174,130.62c-5.603,2.61-7.492,7.686-4.838,13.385c2.119,4.549,6.284,6.485,10.972,4.914l-2.532-5.436
				c-1.753,0.555-3.423,0.283-4.271-1.536c-1.338-2.873,0.691-4.459,3.11-5.587c3.328-1.55,5.587-1.144,6.512,0.844
				c0.825,1.772,0.32,3.377-1.398,4.381l2.498,5.363c4.218-2.518,5.456-6.679,3.003-11.947
				C469.987,130.187,464.753,128.021,459.174,130.62z"/>
			<polygon class="st0" points="487.288,177.771 468.713,181.869 470.056,187.958 477.254,186.369 478.524,192.122 471.326,193.71 
				472.669,199.799 491.245,195.701 489.901,189.612 483.632,190.996 482.363,185.243 488.631,183.859 			"/>
			
				<rect x="348.061" y="458.798" transform="matrix(0.9094 -0.4159 0.4159 0.9094 -162.9474 188.464)" class="st0" width="6.233" height="19.015"/>
			<path class="st0" d="M383.831,438.04c-4.834,3.412-5.896,8.914-2.454,13.791c3.732,5.286,9.122,6.007,13.999,2.565
				c4.597-3.244,6.054-8.736,2.322-14.021C394.805,436.274,389.377,434.126,383.831,438.04z M392.696,450.598
				c-2.439,1.721-4.795-0.334-6.195-2.318c-1.386-1.964-2.342-4.782-0.032-6.411c2.198-1.648,4.645-0.014,6.138,2.1
				C394.419,446.537,394.897,449.045,392.696,450.598z"/>
			<path class="st0" d="M430.912,429.857c2.266-2.586,2.512-5.371-0.02-7.844l-3.289-3.209l-3.911,4.006l3.893,3.8l1.79-1.833
				c0.417,0.48,0.648,1.038,0.637,1.617c-0.013,0.579-0.247,1.199-0.744,1.858L430.912,429.857z"/>
			<polygon class="st0" points="462.324,354.34 474.976,360.39 477.665,354.767 465.013,348.717 467.429,343.665 462.926,341.512 
				455.405,357.236 459.908,359.392 			"/>
			<polygon class="st0" points="495.688,300.754 484.539,304.642 477.226,296.206 475.532,302.997 479.59,306.812 474.224,308.25 
				472.532,315.041 482.866,311.357 490.822,320.279 492.514,313.489 488.078,309.227 493.995,307.544 			"/>
		</g>
	</g>
</g>
</svg>
