<?xml version="1.0" encoding="utf-8"?>
<!-- Generator: Adobe Illustrator 26.0.3, SVG Export Plug-In . SVG Version: 6.00 Build 0)  -->
<svg version="1.1" id="Layer_1" xmlns="http://www.w3.org/2000/svg" xmlns:xlink="http://www.w3.org/1999/xlink" x="0px" y="0px"
	 viewBox="0 0 11.8 11.8" style="enable-background:new 0 0 11.8 11.8;" xml:space="preserve">
<path d="M5.514,3.126C5.552,3.187,5.572,3.261,5.572,3.34v6.622C4.437,8.774,2.792,8.569,1.809,8.567
	c-0.233-0.001-0.423-0.19-0.423-0.422V1.817c0-0.113,0.044-0.22,0.124-0.299C1.59,1.439,1.695,1.395,1.807,1.395
	c0,0,0.001,0,0.001,0C2.792,1.398,4.583,1.626,5.514,3.126z M10.413,8.145V1.817c0-0.113-0.044-0.22-0.124-0.299
	c-0.079-0.079-0.184-0.123-0.296-0.123c0,0-0.001,0-0.001,0c-0.984,0.002-2.775,0.23-3.707,1.731
	C6.248,3.187,6.228,3.261,6.228,3.34v6.622c1.135-1.188,2.781-1.393,3.763-1.395C10.224,8.566,10.413,8.377,10.413,8.145z
	 M11.374,2.855h-0.306v5.29c0,0.592-0.483,1.076-1.076,1.077c-0.833,0.002-2.207,0.165-3.18,1.086
	c1.683-0.412,3.456-0.144,4.467,0.086c0.126,0.029,0.257-0.001,0.358-0.082c0.101-0.08,0.159-0.201,0.159-0.33V3.277
	C11.796,3.044,11.607,2.855,11.374,2.855z M0.732,8.145v-5.29H0.426c-0.233,0-0.422,0.189-0.422,0.422v6.706
	c0,0.129,0.058,0.249,0.159,0.33c0.101,0.081,0.231,0.11,0.358,0.082c1.011-0.23,2.785-0.498,4.467-0.086
	c-0.973-0.921-2.347-1.084-3.18-1.086C1.214,9.221,0.732,8.737,0.732,8.145z"/>
</svg>
