<?xml version="1.0" encoding="utf-8"?>
<!-- Generator: Adobe Illustrator 26.0.3, SVG Export Plug-In . SVG Version: 6.00 Build 0)  -->
<svg version="1.1" id="Layer_1" xmlns="http://www.w3.org/2000/svg" xmlns:xlink="http://www.w3.org/1999/xlink" x="0px" y="0px"
	 viewBox="0 0 11.8 11.8" style="enable-background:new 0 0 11.8 11.8;" xml:space="preserve">
<path d="M2.34,6.357c-0.485,0.998-0.53,2.11-0.142,3.115C2.226,9.548,2.171,9.63,2.089,9.63h-1.79c-0.053,0-0.099-0.035-0.112-0.086
	C-0.191,8.078,0,6.467,0.804,5.092C2.291,6.332,2.244,6.32,2.34,6.357z M5.552,2.171c-1.774,0.107-3.353,1.01-4.36,2.339
	l1.497,1.256c0.652-0.915,1.666-1.54,2.863-1.644V2.171z M6.247,2.17v1.952C7.41,4.22,8.441,4.812,9.114,5.763l1.494-1.253
	C9.533,3.079,7.913,2.267,6.247,2.17z M10.994,5.093c-1.49,1.243-1.439,1.226-1.531,1.263C9.928,7.322,9.998,8.44,9.601,9.473
	C9.572,9.549,9.628,9.63,9.709,9.63H11.5c0.053,0,0.099-0.035,0.112-0.086C12.013,7.996,11.756,6.403,10.994,5.093z M6.247,8.162
	V6.426c0-0.192-0.156-0.348-0.348-0.348c-0.192,0-0.348,0.155-0.348,0.348v1.735C5.299,8.29,5.124,8.552,5.124,8.855
	c0,0.428,0.348,0.775,0.775,0.775c0.427,0,0.775-0.348,0.775-0.775C6.675,8.552,6.501,8.29,6.247,8.162z"/>
</svg>
