<?xml version="1.0" encoding="utf-8"?>
<!-- Generator: Adobe Illustrator 26.0.3, SVG Export Plug-In . SVG Version: 6.00 Build 0)  -->
<svg version="1.1" id="Layer_1" xmlns="http://www.w3.org/2000/svg" xmlns:xlink="http://www.w3.org/1999/xlink" x="0px" y="0px"
	 viewBox="0 0 11.8 11.8" style="enable-background:new 0 0 11.8 11.8;" xml:space="preserve">
<style type="text/css">
	.st0{fill:#030104;}
</style>
<path class="st0" d="M9.249,3.277l-0.005-1.41h1.162v2.392L9.249,3.277z M5.997,0.673L0,5.955c0,0,0.37,0.682,1.177,0l4.82-4.078
	l4.52,4.053c0.934,0.673,1.284,0,1.284,0L5.997,0.673z M1.604,6.294v4.569c0,0-0.01,0.264,0.247,0.264
	c0.321,0,2.974-0.003,2.974-0.003l0.004-2.437c0,0-0.042-0.402,0.348-0.402h1.234c0.461,0,0.433,0.402,0.433,0.402L6.84,11.116
	c0,0,2.516,0,2.912,0c0.327,0,0.312-0.328,0.312-0.328V6.294l-4.103-3.65L1.604,6.294z"/>
</svg>
