<?xml version="1.0" encoding="utf-8"?>
<!-- Generator: Adobe Illustrator 26.0.3, SVG Export Plug-In . SVG Version: 6.00 Build 0)  -->
<svg version="1.1" id="Layer_1" xmlns="http://www.w3.org/2000/svg" xmlns:xlink="http://www.w3.org/1999/xlink" x="0px" y="0px"
	 viewBox="0 0 11.8 11.8" style="enable-background:new 0 0 11.8 11.8;" xml:space="preserve">
<path d="M11.763,5.596c-0.025,0.061-0.061,0.115-0.107,0.16l-1.475,1.475C10.086,7.327,9.96,7.375,9.834,7.375
	c-0.126,0-0.252-0.048-0.348-0.144c-0.192-0.192-0.192-0.503,0-0.695L10.122,5.9H7.375c-0.272,0-0.492-0.22-0.492-0.492
	c0-0.271,0.22-0.492,0.492-0.492h2.747L9.486,4.281c-0.192-0.192-0.192-0.503,0-0.695c0.192-0.192,0.503-0.192,0.695,0l1.475,1.475
	c0.046,0.046,0.082,0.1,0.107,0.16C11.812,5.34,11.812,5.476,11.763,5.596z M8.359,6.883c-0.272,0-0.492,0.22-0.492,0.492v2.458H5.9
	V1.966c0-0.217-0.143-0.409-0.351-0.471L3.842,0.983h4.025v2.458c0,0.271,0.22,0.492,0.492,0.492S8.85,3.713,8.85,3.442v-2.95
	C8.85,0.22,8.631,0,8.359,0H0.492C0.474,0,0.458,0.007,0.441,0.009C0.418,0.011,0.397,0.015,0.375,0.021
	C0.323,0.034,0.276,0.054,0.233,0.082C0.222,0.089,0.208,0.089,0.198,0.097C0.194,0.1,0.193,0.105,0.189,0.108
	C0.135,0.151,0.09,0.202,0.058,0.264C0.051,0.277,0.05,0.291,0.044,0.305C0.029,0.342,0.011,0.379,0.005,0.42
	C0.003,0.435,0.007,0.449,0.007,0.463C0.006,0.473,0,0.482,0,0.491v9.834c0,0.235,0.166,0.436,0.395,0.482l4.917,0.983
	c0.032,0.007,0.064,0.01,0.096,0.01c0.113,0,0.223-0.039,0.312-0.112c0.114-0.093,0.18-0.233,0.18-0.38v-0.492h2.458
	c0.272,0,0.492-0.22,0.492-0.492v-2.95C8.85,7.104,8.631,6.883,8.359,6.883z"/>
</svg>
