<?xml version="1.0" encoding="utf-8"?>
<!-- Generator: Adobe Illustrator 26.0.3, SVG Export Plug-In . SVG Version: 6.00 Build 0)  -->
<svg version="1.1" id="Layer_1" xmlns="http://www.w3.org/2000/svg" xmlns:xlink="http://www.w3.org/1999/xlink" x="0px" y="0px"
	 viewBox="0 0 11.8 11.8" style="enable-background:new 0 0 11.8 11.8;" xml:space="preserve">
<path d="M11.8,5.9c0,0.255-0.206,0.461-0.461,0.461H1.577L3.194,7.97c0.18,0.18,0.181,0.471,0.002,0.652
	c-0.18,0.18-0.471,0.181-0.652,0.002L0.136,6.227c0,0,0,0,0,0c-0.181-0.18-0.18-0.473,0-0.653c0,0,0,0,0,0l2.408-2.397
	c0.18-0.18,0.472-0.179,0.652,0.002c0.18,0.18,0.179,0.472-0.002,0.652L1.577,5.439h9.762C11.594,5.439,11.8,5.645,11.8,5.9z"/>
</svg>
