<?xml version="1.0" encoding="utf-8"?>
<!-- Generator: Adobe Illustrator 26.0.3, SVG Export Plug-In . SVG Version: 6.00 Build 0)  -->
<svg version="1.1" id="Layer_1" xmlns="http://www.w3.org/2000/svg" xmlns:xlink="http://www.w3.org/1999/xlink" x="0px" y="0px"
	 viewBox="0 0 11.8 11.8" style="enable-background:new 0 0 11.8 11.8;" xml:space="preserve">
<path d="M3.524,2.885C3.524,1.292,3.873,0,5.9,0c2.026,0,2.376,1.292,2.376,2.885c0,1.594-1.064,2.885-2.376,2.885
	C4.588,5.771,3.524,4.479,3.524,2.885z M10.387,10.253C10.388,10.226,10.387,10.068,10.387,10.253L10.387,10.253z M7.201,5.992
	c0,0-0.391,0.498-1.301,0.498S4.599,5.992,4.599,5.992C1.855,6.488,1.47,7.267,1.419,9.97c-0.004,0.221-0.006,0.232-0.007,0.207
	c0,0.048,0,0.137,0,0.292c0,0,0.661,1.332,4.487,1.332s4.487-1.332,4.487-1.332c0-0.099,0-0.169,0-0.216
	c-0.001,0.016-0.002-0.015-0.005-0.192C10.338,7.284,9.975,6.493,7.201,5.992z"/>
</svg>
