<?xml version="1.0" encoding="utf-8"?>
<!-- Generator: Adobe Illustrator 26.0.3, SVG Export Plug-In . SVG Version: 6.00 Build 0)  -->
<svg version="1.1" id="Layer_1" xmlns="http://www.w3.org/2000/svg" xmlns:xlink="http://www.w3.org/1999/xlink" x="0px" y="0px"
	 viewBox="0 0 11.8 11.8" style="enable-background:new 0 0 11.8 11.8;" xml:space="preserve">
<path d="M11.521,10.093L8.808,7.38c0.461-0.734,0.728-1.601,0.728-2.532c0-2.633-2.135-4.768-4.768-4.768S0,2.214,0,4.848
	c0,2.634,2.135,4.768,4.768,4.768c1.013,0,1.951-0.317,2.723-0.855l2.681,2.681c0.186,0.186,0.43,0.279,0.674,0.279
	c0.244,0,0.488-0.093,0.675-0.279C11.893,11.069,11.893,10.465,11.521,10.093z M4.768,8.071c-1.78,0-3.223-1.443-3.223-3.223
	s1.443-3.223,3.223-3.223c1.78,0,3.223,1.443,3.223,3.223S6.548,8.071,4.768,8.071z"/>
</svg>
