<?xml version="1.0" encoding="utf-8"?>
<!-- Generator: Adobe Illustrator 26.0.3, SVG Export Plug-In . SVG Version: 6.00 Build 0)  -->
<svg version="1.1" id="Layer_1" xmlns="http://www.w3.org/2000/svg" xmlns:xlink="http://www.w3.org/1999/xlink" x="0px" y="0px"
	 viewBox="0 0 11.8 11.8" style="enable-background:new 0 0 11.8 11.8;" xml:space="preserve">
<g>
	<path d="M7.287,2.686c0-1.048,0.23-1.897,1.562-1.897c1.333,0,1.562,0.849,1.562,1.897S9.712,4.583,8.849,4.583
		C7.987,4.583,7.287,3.734,7.287,2.686z M11.8,7.53C11.8,7.513,11.8,7.409,11.8,7.53L11.8,7.53z M9.704,4.727
		c0,0-0.257,0.331-0.853,0.331c-0.605,0-0.861-0.331-0.861-0.331c-0.05,0.008-0.091,0.017-0.132,0.025
		c0.016,0.149,0.016,0.281,0.016,0.389c0,0.687-0.265,1.3-0.671,1.722c1.217,0.281,1.731,0.745,1.929,1.673
		c2.269-0.058,2.666-0.861,2.666-0.861V7.534c0,0.008,0-0.017,0-0.132C11.766,5.58,11.526,5.058,9.704,4.727z M2.948,4.583
		c0.863,0,1.562-0.85,1.562-1.897s-0.23-1.897-1.562-1.897c-1.332,0-1.562,0.849-1.562,1.897S2.085,4.583,2.948,4.583z M4.595,6.863
		C4.181,6.441,3.925,5.828,3.925,5.141c0-0.108,0-0.24,0.016-0.389C3.892,4.743,3.85,4.735,3.801,4.727c0,0-0.257,0.331-0.853,0.331
		S2.095,4.727,2.095,4.727C0.29,5.058,0.033,5.563,0,7.343v0.331c0,0,0.397,0.803,2.658,0.861C2.857,7.608,3.37,7.145,4.595,6.863z
		 M4.339,5.141c0,0.257,0.041,0.513,0.124,0.737c0.041,0.116,0.083,0.224,0.141,0.323C4.687,6.35,4.786,6.49,4.902,6.606
		c0.066,0.066,0.141,0.132,0.215,0.182c0.223,0.166,0.48,0.257,0.77,0.257h0.008c0.008,0,0.008,0,0.017,0
		c0.182-0.008,0.364-0.041,0.53-0.124c0.166-0.066,0.323-0.182,0.455-0.315C7.005,6.49,7.113,6.35,7.195,6.201
		c0.058-0.099,0.108-0.207,0.141-0.323C7.419,5.654,7.46,5.397,7.46,5.141c0-0.099,0-0.199-0.017-0.298
		C7.427,4.379,7.336,3.973,7.088,3.684C7.055,3.642,7.021,3.609,6.98,3.576C6.74,3.377,6.392,3.253,5.895,3.253
		c-0.497,0-0.845,0.124-1.076,0.323C4.778,3.609,4.744,3.65,4.711,3.684c-0.248,0.29-0.34,0.695-0.356,1.159
		C4.339,4.942,4.339,5.041,4.339,5.141z M8.849,9.952C8.848,9.933,8.847,9.909,8.843,9.86C8.835,9.314,8.81,8.883,8.719,8.544
		C8.711,8.461,8.686,8.387,8.653,8.312c-0.058-0.166-0.141-0.306-0.24-0.414C8.363,7.84,8.313,7.79,8.247,7.732
		C8.206,7.699,8.164,7.675,8.123,7.641C8.109,7.633,8.092,7.626,8.078,7.617c-0.303-0.193-0.724-0.32-1.321-0.431c0,0,0,0,0,0.008
		c0,0-0.008,0-0.008,0.008C6.74,7.211,6.732,7.219,6.723,7.227C6.69,7.252,6.632,7.302,6.55,7.352
		C6.516,7.368,6.475,7.393,6.434,7.41c-0.141,0.05-0.315,0.099-0.538,0.099c-0.224,0-0.397-0.05-0.53-0.099
		C5.324,7.393,5.283,7.368,5.25,7.352c-0.083-0.05-0.141-0.099-0.174-0.124L5.051,7.203c0-0.008-0.008-0.008-0.008-0.008
		c0-0.008,0-0.008,0-0.008C4.927,7.203,4.819,7.227,4.72,7.252C4.521,7.294,4.339,7.343,4.181,7.401
		c-0.24,0.075-0.431,0.174-0.58,0.29C3.544,7.732,3.502,7.774,3.453,7.815c-0.19,0.19-0.306,0.422-0.373,0.729
		C2.997,8.875,2.964,9.281,2.956,9.802C2.948,9.91,2.948,9.943,2.948,9.943v0.19c0,0,0,0,0.008,0.008
		c0.025,0.033,0.099,0.141,0.257,0.265c0.05,0.033,0.099,0.066,0.157,0.099c0.149,0.091,0.356,0.182,0.621,0.265
		c0.439,0.141,1.052,0.24,1.904,0.24c0.861,0,1.474-0.099,1.913-0.24c0.265-0.083,0.472-0.174,0.621-0.265
		c0.058-0.033,0.108-0.066,0.149-0.099c0.166-0.124,0.24-0.232,0.265-0.265c0.008-0.008,0.008-0.008,0.008-0.008V9.985
		c0,0.005,0-0.005-0.002-0.029C8.85,9.94,8.849,9.934,8.849,9.952z"/>
</g>
</svg>
