<?xml version="1.0" encoding="utf-8"?>
<!-- Generator: Adobe Illustrator 26.0.3, SVG Export Plug-In . SVG Version: 6.00 Build 0)  -->
<svg version="1.1" id="Layer_1" xmlns="http://www.w3.org/2000/svg" xmlns:xlink="http://www.w3.org/1999/xlink" x="0px" y="0px"
	 viewBox="0 0 11.8 11.8" style="enable-background:new 0 0 11.8 11.8;" xml:space="preserve">
<path d="M5.505,7.751c0-0.218,0.177-0.395,0.395-0.395c0.218,0,0.395,0.177,0.395,0.395c0,0.218-0.177,0.395-0.395,0.395
	C5.682,8.146,5.505,7.969,5.505,7.751z M0,5.505h11.8v4.838c0,0.191-0.155,0.346-0.346,0.346H0.346C0.155,10.689,0,10.534,0,10.343
	V5.505z M4.765,7.495l0.07,0.04c-0.014,0.07-0.022,0.142-0.022,0.216c0,0.074,0.007,0.146,0.022,0.216l-0.07,0.04
	C4.6,8.103,4.543,8.314,4.639,8.48c0.064,0.111,0.18,0.173,0.3,0.173c0.059,0,0.118-0.015,0.173-0.046l0.071-0.041
	C5.289,8.66,5.416,8.734,5.554,8.781v0.081c0,0.191,0.155,0.346,0.346,0.346c0.191,0,0.346-0.155,0.346-0.346V8.781
	C6.385,8.734,6.511,8.66,6.618,8.565l0.071,0.041c0.054,0.031,0.114,0.046,0.173,0.046c0.119,0,0.236-0.062,0.3-0.173
	C7.257,8.314,7.2,8.103,7.035,8.007l-0.07-0.04c0.014-0.07,0.022-0.142,0.022-0.216c0-0.074-0.007-0.146-0.022-0.216l0.07-0.04
	C7.2,7.4,7.257,7.189,7.161,7.023C7.066,6.858,6.855,6.801,6.689,6.897L6.618,6.938C6.511,6.843,6.384,6.769,6.246,6.722V6.641
	c0-0.191-0.155-0.346-0.346-0.346c-0.191,0-0.346,0.155-0.346,0.346v0.081C5.415,6.769,5.289,6.843,5.182,6.938L5.111,6.897
	C4.945,6.801,4.734,6.858,4.639,7.023C4.543,7.189,4.6,7.4,4.765,7.495z M11.454,2.962H0.346C0.155,2.962,0,3.117,0,3.308v1.506
	h11.8V3.308C11.8,3.117,11.645,2.962,11.454,2.962z M3.654,2.197c0-0.218,0.177-0.395,0.395-0.395h3.703
	c0.218,0,0.395,0.176,0.395,0.395v0.074h0.691V2.197c0-0.607-0.493-1.086-1.086-1.086H4.049c-0.605,0-1.086,0.491-1.086,1.086v0.074
	h0.691V2.197z"/>
</svg>
