<?xml version="1.0" encoding="utf-8"?>
<!-- Generator: Adobe Illustrator 26.0.3, SVG Export Plug-In . SVG Version: 6.00 Build 0)  -->
<svg version="1.1" xmlns="http://www.w3.org/2000/svg" xmlns:xlink="http://www.w3.org/1999/xlink" x="0px" y="0px"
	 viewBox="0 0 50 50" style="enable-background:new 0 0 50 50;" xml:space="preserve">
<style type="text/css">
	.st0{fill:#FFFFFF;}
</style>
<g id="Layer_1">
	<g>
		<rect width="50" height="50"/>
	</g>
</g>
<g id="Layer_2">
	<g>
		<path class="st0" d="M18.604,16.881c0-4.289,0.94-7.768,6.397-7.768c5.455,0,6.397,3.479,6.397,7.768
			c0,4.292-2.865,7.768-6.397,7.768C21.468,24.651,18.604,21.173,18.604,16.881z M37.082,36.719
			C37.084,36.646,37.082,36.221,37.082,36.719L37.082,36.719z M28.504,25.246c0,0-1.053,1.341-3.503,1.341s-3.503-1.341-3.503-1.341
			c-7.388,1.335-8.425,3.433-8.562,10.711c-0.011,0.595-0.016,0.625-0.019,0.557c0,0.129,0,0.369,0,0.786
			c0,0,1.78,3.586,12.081,3.586S37.079,37.3,37.079,37.3c0-0.267,0-0.455,0-0.582c-0.003,0.043-0.005-0.04-0.013-0.517
			C36.95,28.725,35.972,26.595,28.504,25.246z"/>
	</g>
</g>
</svg>
